<?xml version="1.0" encoding="UTF-8" standalone="no"?>
<svg
   xmlns:dc="http://purl.org/dc/elements/1.1/"
   xmlns:cc="http://creativecommons.org/ns#"
   xmlns:rdf="http://www.w3.org/1999/02/22-rdf-syntax-ns#"
   xmlns:svg="http://www.w3.org/2000/svg"
   xmlns="http://www.w3.org/2000/svg"
   xmlns:sodipodi="http://sodipodi.sourceforge.net/DTD/sodipodi-0.dtd"
   xmlns:inkscape="http://www.inkscape.org/namespaces/inkscape"
   height="512pt"
   version="1.1"
   viewBox="-66 0 512 512"
   width="512pt"
   id="svg11"
   sodipodi:docname="lock.svg"
   inkscape:version="1.0.1 (3bc2e813f5, 2020-09-07)">
  <metadata
     id="metadata17">
    <rdf:RDF>
      <cc:Work
         rdf:about="">
        <dc:format>image/svg+xml</dc:format>
        <dc:type
           rdf:resource="http://purl.org/dc/dcmitype/StillImage" />
      </cc:Work>
    </rdf:RDF>
  </metadata>
  <defs
     id="defs15" />
  <sodipodi:namedview
     pagecolor="#ffffff"
     bordercolor="#666666"
     borderopacity="1"
     objecttolerance="10"
     gridtolerance="10"
     guidetolerance="10"
     inkscape:pageopacity="0"
     inkscape:pageshadow="2"
     inkscape:window-width="1920"
     inkscape:window-height="1051"
     id="namedview13"
     showgrid="false"
     inkscape:zoom="1.2890625"
     inkscape:cx="341.33333"
     inkscape:cy="339.78182"
     inkscape:window-x="-9"
     inkscape:window-y="-9"
     inkscape:window-maximized="1"
     inkscape:current-layer="svg11" />
  <g
     id="surface1">
    <path
       d="M 340 197.007812 L 340 150 C 340 67.289062 272.710938 0 190 0 C 107.289062 0 40 67.289062 40 150 L 40 197.007812 C 17.203125 201.652344 0 221.855469 0 246 L 0 302.769531 C 0 308.292969 4.476562 312.769531 10 312.769531 C 15.523438 312.769531 20 308.292969 20 302.769531 L 20 246 C 20 229.457031 33.457031 216 50 216 L 330 216 C 346.542969 216 360 229.457031 360 246 L 360 462 C 360 475.035156 351.640625 486.152344 340 490.28125 L 340 430 C 340 424.476562 335.523438 420 330 420 C 324.476562 420 320 424.476562 320 430 L 320 492 L 50 492 C 33.457031 492 20 478.542969 20 462 L 20 383 C 20 377.476562 15.523438 373 10 373 C 4.476562 373 0 377.476562 0 383 L 0 462 C 0 489.570312 22.429688 512 50 512 L 330 512 C 357.570312 512 380 489.570312 380 462 L 380 246 C 380 221.855469 362.796875 201.652344 340 197.007812 Z M 114 196 L 114 150 C 114 108.09375 148.09375 74 190 74 C 231.90625 74 266 108.09375 266 150 L 266 196 Z M 286 196 L 286 150 C 286 97.066406 242.933594 54 190 54 C 137.066406 54 94 97.066406 94 150 L 94 196 L 60 196 L 60 150 C 60 78.316406 118.316406 20 190 20 C 261.683594 20 320 78.316406 320 150 L 320 196 Z M 286 196 "
       style=" stroke:none;fill-rule:nonzero;fill:rgb(0%,0%,0%);fill-opacity:1;"
       id="path2" />
    <path
       d="M 10 352.488281 C 12.628906 352.488281 15.210938 351.421875 17.070312 349.558594 C 18.929688 347.699219 20 345.121094 20 342.488281 C 20 339.859375 18.929688 337.277344 17.070312 335.421875 C 15.210938 333.558594 12.628906 332.488281 10 332.488281 C 7.371094 332.488281 4.789062 333.558594 2.929688 335.421875 C 1.070312 337.277344 0 339.859375 0 342.488281 C 0 345.121094 1.070312 347.699219 2.929688 349.558594 C 4.789062 351.421875 7.371094 352.488281 10 352.488281 Z M 10 352.488281 "
       style=" stroke:none;fill-rule:nonzero;fill:rgb(0%,0%,0%);fill-opacity:1;"
       id="path4" />
    <path
       d="M 190 458 C 206.542969 458 220 444.542969 220 428 L 220 374.898438 C 235.023438 364.953125 244.128906 348.234375 244.128906 329.914062 C 244.128906 300.140625 219.902344 275.914062 190.128906 275.914062 C 160.351562 275.914062 136.128906 300.140625 136.128906 329.914062 C 136.128906 348.101562 145.132812 364.757812 160 374.726562 L 160 428 C 160 444.542969 173.457031 458 190 458 Z M 156.128906 329.914062 C 156.128906 311.164062 171.378906 295.914062 190.128906 295.914062 C 208.875 295.914062 224.128906 311.164062 224.128906 329.914062 C 224.128906 342.789062 216.980469 354.410156 205.476562 360.25 C 202.117188 361.953125 200 365.398438 200 369.167969 L 200 428 C 200 433.515625 195.515625 438 190 438 C 184.484375 438 180 433.515625 180 428 L 180 369.035156 C 180 365.292969 177.910156 361.863281 174.582031 360.148438 C 163.199219 354.28125 156.128906 342.695312 156.128906 329.914062 Z M 156.128906 329.914062 "
       style=" stroke:none;fill-rule:nonzero;fill:rgb(0%,0%,0%);fill-opacity:1;"
       id="path6" />
    <path
       d="M 330 399 C 332.640625 399 335.210938 397.929688 337.070312 396.070312 C 338.929688 394.210938 340 391.640625 340 389 C 340 386.359375 338.929688 383.789062 337.070312 381.929688 C 335.210938 380.070312 332.640625 379 330 379 C 327.371094 379 324.789062 380.070312 322.929688 381.929688 C 321.070312 383.789062 320 386.371094 320 389 C 320 391.628906 321.070312 394.210938 322.929688 396.070312 C 324.789062 397.929688 327.371094 399 330 399 Z M 330 399 "
       style=" stroke:none;fill-rule:nonzero;fill:rgb(0%,0%,0%);fill-opacity:1;"
       id="path8" />
  </g>
  <path
     style="fill:#ffffff;stroke-width:0.775758"
     d="M 148.25485,681.82772 C 122.7013,679.36401 100.31514,661.55831 91.987156,637.07304 88.474126,626.7443 88.332693,623.67013 88.585681,563.13927 l 0.238561,-57.07893 2.173435,-2.84916 c 2.832413,-3.71303 5.790921,-5.17482 10.473323,-5.17482 4.20965,0 7.76082,1.91117 10.55464,5.68027 1.60433,2.16439 1.62743,2.85909 2.02472,60.89697 0.39864,58.2357 0.41584,58.74908 2.14052,63.86635 2.13757,6.34234 6.85186,13.54191 11.60943,17.72969 4.46919,3.93394 13.22886,8.28644 18.72982,9.30645 2.70653,0.50186 68.36444,0.77482 186.37575,0.77482 h 182.19715 v -42.69158 c 0,-46.71365 -0.0735,-45.91396 4.58433,-49.83333 5.07011,-4.26621 12.0103,-4.22944 16.62432,0.0881 4.53811,4.24649 4.39135,2.63636 4.39135,48.1801 0,30.20641 0.24076,41.92944 0.86111,41.92944 1.67953,0 10.11823,-4.95135 13.47589,-7.90687 4.77726,-4.20511 9.42262,-11.49324 11.46523,-17.98789 l 1.73716,-5.52343 V 472.04848 321.55152 l -1.71866,-5.46253 c -4.26126,-13.54382 -14.78161,-23.50416 -28.63755,-27.11318 -3.94388,-1.02725 -27.88785,-1.16975 -196.55288,-1.16975 -209.72252,0 -195.65577,-0.29878 -205.16579,4.35782 -8.90265,4.3592 -16.60642,13.42521 -19.98043,23.5135 -1.65353,4.94406 -1.71775,6.42506 -2.12188,48.92868 l -0.41675,43.8303 -1.81078,2.53878 c -2.20127,3.08624 -6.89827,5.60668 -10.44842,5.60668 -4.18483,0 -9.113107,-3.06769 -11.166549,-6.95081 l -1.786367,-3.37807 v -42.01429 c 0,-25.93117 0.3121,-43.77638 0.815305,-46.61739 4.665833,-26.34251 23.975651,-47.40709 49.361971,-53.84769 l 3.24395,-0.823 0.30201,-42.4571 c 0.2789,-39.20936 0.42936,-43.17245 1.96685,-51.80858 6.16912,-34.65194 19.34627,-64.65459 40.31673,-91.795895 11.85555,-15.344205 33.87461,-35.072844 51.775,-46.389354 23.16161,-14.642622 51.59635,-24.704796 80.70944,-28.5605652 12.16431,-1.61105501 36.52347,-1.62754304 48.56069,-0.032869 45.39827,6.0143025 84.17541,24.9566332 115.92961,56.6307022 12.27006,12.239095 17.28713,18.311428 26.41379,31.969509 13.65607,20.436352 23.95811,45.047742 28.91717,69.082592 3.41125,16.53315 3.95415,25.5317 3.95415,65.53997 v 37.79304 L 544,263.74786 c 9.89973,2.47971 20.56692,8.23432 28.71973,15.49339 7.11706,6.33685 14.34005,17.30763 17.67502,26.84603 3.98257,11.39065 3.83555,5.03216 3.83555,165.88697 0,101.34265 -0.2641,151.38943 -0.8153,154.50146 -3.69221,20.84557 -16.49082,38.45114 -34.86955,47.96596 -8.7634,4.5369 -15.43944,6.48775 -25.45057,7.4371 -10.00896,0.94915 -374.96816,0.90073 -384.84003,-0.0511 z m 65.09446,-448.90651 c 0.0244,-43.42954 1.22688,-55.81744 7.1352,-73.50303 20.35157,-60.919077 84.79298,-97.730266 147.35205,-84.17264 43.78914,9.489855 80.26879,42.03603 94.3456,84.17264 5.90832,17.68559 7.11086,30.07349 7.13519,73.50303 l 0.016,28.50909 h 22.9466 22.9466 l -0.32732,-39.36969 c -0.35184,-42.31832 -0.63882,-46.0034 -4.96888,-63.80606 C 501.39349,123.15606 480.48719,89.865232 452.12874,66.212235 399.39098,22.225139 324.29961,13.916549 262.59394,45.240894 245.26161,54.039498 230.75811,64.82236 216.63031,79.413287 191.0294,105.85343 175.48277,137.17906 169.41705,174.54545 c -1.08232,6.66729 -1.38167,15.28994 -1.64959,47.51516 l -0.32732,39.36969 h 22.94659 22.9466 z M 442.953,226.71515 c -0.005,-38.49699 -0.45296,-43.95811 -4.69758,-57.27717 -5.15413,-16.17303 -13.01442,-28.93172 -25.53705,-41.45137 -19.55532,-19.55064 -43.57552,-29.465398 -71.38504,-29.465398 -27.80951,0 -51.82972,9.914758 -71.38503,29.465398 -14.86033,14.85678 -23.43325,30.41329 -28.43655,51.60127 -1.07551,4.55458 -1.33269,11.59165 -1.59472,43.63636 l -0.31241,38.20606 h 101.67647 101.67649 l -0.005,-34.71515 z"
     id="path842"
     transform="matrix(0.74999998,0,0,0.74999998,-66,0)" />
  <path
     style="fill:#ffffff;stroke-width:0.775758"
     d="m 336.29091,610.02268 c -12.50035,-1.89098 -24.37484,-10.37812 -29.95683,-21.41127 -4.46661,-8.82853 -4.56008,-9.86966 -4.61175,-51.36834 l -0.0474,-38.04307 -5.5186,-4.26667 c -12.72409,-9.83755 -22.72081,-27.24855 -25.38837,-44.21818 -4.85921,-30.91184 12.60133,-62.98893 41.39288,-76.04364 10.37295,-4.70332 15.90892,-5.77878 29.56033,-5.7426 11.23168,0.0298 13.06112,0.23222 19.23614,2.12876 20.31249,6.23862 35.29268,18.83078 44.73697,37.60536 8.64907,17.19372 9.51434,38.89103 2.29575,57.56727 -4.26313,11.02976 -13.15637,22.79414 -22.93283,30.33663 l -4.16027,3.20963 v 37.75479 c 0,41.2086 -0.0922,42.24053 -4.56439,51.08006 -4.56549,9.02399 -13.0977,16.31716 -22.82727,19.51232 -4.93687,1.62126 -13.09849,2.52158 -17.2144,1.89895 z m 11.1946,-27.013 c 3.03912,-1.57159 6.04742,-5.34369 7.00156,-8.77922 0.50445,-1.81633 0.8033,-18.11513 0.80678,-44.00016 0.005,-37.58418 0.12201,-41.34833 1.3619,-43.8303 0.93441,-1.87048 3.42194,-4.07426 7.99604,-7.0839 21.32706,-14.03273 28.25713,-37.47155 17.63095,-59.63125 -11.64498,-24.28428 -43.26035,-33.01489 -65.68121,-18.13793 -13.2422,8.78663 -20.63054,22.71632 -20.52418,38.6955 0.067,10.06964 2.51977,18.01922 7.91714,25.66016 4.57088,6.47091 5.71062,7.54756 13.67824,12.92119 3.41333,2.30206 6.99151,5.34919 7.95151,6.77138 l 1.74546,2.58581 0.034,41.97012 c 0.0358,44.17829 0.14107,45.63442 3.57704,49.50225 3.89144,4.38053 11.52305,5.93247 16.50473,3.35635 z"
     id="path844"
     transform="matrix(0.74999998,0,0,0.74999998,-66,0)" />
  <path
     style="fill:#ffffff;stroke-width:0.775758"
     d="m 96.969697,468.7736 c -4.601233,-1.72895 -8.533333,-7.29872 -8.533333,-12.08735 0,-4.18483 3.067687,-9.11311 6.950805,-11.16655 4.142532,-2.19062 7.683161,-2.26745 11.632951,-0.25241 4.71185,2.4038 6.62836,5.70088 6.62836,11.4031 0,5.36108 -1.33675,7.87282 -5.81029,10.91749 -2.50153,1.70253 -7.919945,2.29366 -10.868493,1.18572 z"
     id="path846"
     transform="matrix(0.74999998,0,0,0.74999998,-66,0)" />
  <path
     style="fill:#ffffff;stroke-width:0.775758"
     d="m 523.63636,530.87594 c -5.30625,-2.18419 -8.9246,-7.88569 -8.33337,-13.13105 1.04505,-9.27165 10.32337,-14.52912 18.3838,-10.417 4.71185,2.40381 6.62836,5.70088 6.62836,11.4031 0,5.14864 -1.20878,7.59034 -5.25212,10.60913 -2.07829,1.55166 -9.09653,2.49496 -11.42667,1.53582 z"
     id="path848"
     transform="matrix(0.74999998,0,0,0.74999998,-66,0)" />
</svg>
