<?xml version="1.0" encoding="UTF-8" standalone="no"?>
<svg
   xmlns:dc="http://purl.org/dc/elements/1.1/"
   xmlns:cc="http://creativecommons.org/ns#"
   xmlns:rdf="http://www.w3.org/1999/02/22-rdf-syntax-ns#"
   xmlns:svg="http://www.w3.org/2000/svg"
   xmlns="http://www.w3.org/2000/svg"
   xmlns:sodipodi="http://sodipodi.sourceforge.net/DTD/sodipodi-0.dtd"
   xmlns:inkscape="http://www.inkscape.org/namespaces/inkscape"
   version="1.1"
   id="Layer_1"
   x="0px"
   y="0px"
   viewBox="0 0 512 512"
   style="enable-background:new 0 0 512 512;"
   xml:space="preserve"
   sodipodi:docname="email.svg"
   inkscape:version="1.0.1 (3bc2e813f5, 2020-09-07)"><metadata
   id="metadata43"><rdf:RDF><cc:Work
       rdf:about=""><dc:format>image/svg+xml</dc:format><dc:type
         rdf:resource="http://purl.org/dc/dcmitype/StillImage" /></cc:Work></rdf:RDF></metadata><defs
   id="defs41" /><sodipodi:namedview
   pagecolor="#ffffff"
   bordercolor="#666666"
   borderopacity="1"
   objecttolerance="10"
   gridtolerance="10"
   guidetolerance="10"
   inkscape:pageopacity="0"
   inkscape:pageshadow="2"
   inkscape:window-width="1920"
   inkscape:window-height="1051"
   id="namedview39"
   showgrid="false"
   inkscape:zoom="1.71875"
   inkscape:cx="256"
   inkscape:cy="254.83636"
   inkscape:window-x="-9"
   inkscape:window-y="-9"
   inkscape:window-maximized="1"
   inkscape:current-layer="Layer_1" />
<g
   id="g6">
	<g
   id="g4">
		<path
   d="M405.333,213.874V106.667c0-23.531-19.135-42.667-42.667-42.667h-320C19.135,64,0,83.135,0,106.667V320    c0,23.531,19.135,42.667,42.667,42.667h239.215C295.858,411.84,341.073,448,394.667,448c20.625,0,40.906-5.427,58.677-15.708    c5.094-2.948,6.844-9.469,3.885-14.573c-2.948-5.104-9.479-6.865-14.573-3.885c-14.521,8.396-31.115,12.833-47.99,12.833    c-52.938,0-96-43.063-96-96s43.063-96,96-96s96,43.063,96,96v10.667c0,11.76-9.573,21.333-21.333,21.333    c-11.76,0-21.333-9.573-21.333-21.333v-42.667c0-5.896-4.771-10.667-10.667-10.667c-2.869,0-5.447,1.161-7.362,3    c-9.428-8.401-21.714-13.667-35.305-13.667c-29.406,0-53.333,23.927-53.333,53.333S365.26,384,394.667,384    c15.896,0,30.03-7.131,39.81-18.202c7.727,10.977,20.44,18.202,34.857,18.202C492.865,384,512,364.865,512,341.333v-10.667    C512,269.569,465.044,219.288,405.333,213.874z M42.667,85.333h320c0.444,0,0.816,0.227,1.254,0.254L211.438,210.75    c-5.427,3.417-13.292,2.708-16.823,0.542L41.426,85.585C41.859,85.559,42.227,85.333,42.667,85.333z M384,213.874    c-59.711,5.414-106.667,55.695-106.667,116.793c0,3.6,0.221,7.148,0.54,10.667H42.667c-11.76,0-21.333-9.573-21.333-21.333    V106.667c0-3.021,0.667-5.874,1.805-8.48l158.883,130.293c6.208,4.052,13.344,6.188,20.646,6.188    c7.021,0,13.885-1.979,19.927-5.729c0.604-0.323,1.177-0.708,1.719-1.156l157.88-129.598c1.139,2.608,1.807,5.461,1.807,8.483    V213.874z M394.667,362.667c-17.646,0-32-14.354-32-32c0-17.646,14.354-32,32-32s32,14.354,32,32    C426.667,348.313,412.313,362.667,394.667,362.667z"
   id="path2" />
	</g>
</g>
<g
   id="g8">
</g>
<g
   id="g10">
</g>
<g
   id="g12">
</g>
<g
   id="g14">
</g>
<g
   id="g16">
</g>
<g
   id="g18">
</g>
<g
   id="g20">
</g>
<g
   id="g22">
</g>
<g
   id="g24">
</g>
<g
   id="g26">
</g>
<g
   id="g28">
</g>
<g
   id="g30">
</g>
<g
   id="g32">
</g>
<g
   id="g34">
</g>
<g
   id="g36">
</g>
<path
   style="fill:#ffffff;stroke-width:0.581818"
   d="m 386.82364,447.34435 c -28.4013,-1.75385 -55.09894,-14.19884 -75.57089,-35.22704 -12.82731,-13.17585 -21.32648,-26.81588 -27.07077,-43.44496 l -2.13611,-6.18377 -123.13203,-0.15397 C 20.829211,362.16194 33.808161,362.59408 24.145455,357.84741 12.789029,352.26873 4.6930415,342.23014 1.3642989,329.6 0.33881332,325.70903 0.29090909,320.52883 0.29090909,213.52727 v -112 L 1.5739133,96.719659 C 5.7768721,80.970526 16.962637,69.777332 32.691996,65.580909 l 4.835277,-1.29 H 202.47273 c 186.6607,0 168.82404,-0.477313 179.36571,4.799866 4.32505,2.165123 6.26647,3.609178 10.30012,7.661342 5.57622,5.601825 8.59698,10.35824 10.93087,17.211519 l 1.58512,4.654546 0.16167,57.712238 0.16168,57.71224 2.74741,0.36071 c 27.55521,3.61774 50.81788,14.96716 69.87024,34.08837 16.31349,16.37246 27.16483,36.63109 31.75814,59.29008 1.97742,9.75474 3.013,27.18282 2.14257,36.05835 -1.08696,11.08346 -5.01681,19.89133 -12.07485,27.06304 -8.15384,8.28515 -18.55799,12.58432 -30.39925,12.56146 -12.19794,-0.0236 -23.23514,-5.10032 -31.49903,-14.48858 l -3.11416,-3.53786 -4.0258,3.79773 c -10.2382,9.6582 -21.9681,14.28339 -36.14058,14.25049 -10.49293,-0.0244 -20.01832,-2.94357 -28.824,-8.83359 -5.21547,-3.48857 -11.23984,-9.3585 -14.56534,-14.19194 -2.81355,-4.08937 -6.16893,-11.62173 -7.65668,-17.18819 -1.68299,-6.29697 -1.83219,-17.87545 -0.31012,-24.06564 4.8767,-19.83328 19.73961,-34.98864 39.19272,-39.96391 15.17987,-3.88236 32.73468,-0.0786 44.73067,9.69232 l 3.1676,2.58004 1.67136,-1.23569 c 4.83836,-3.57715 12.18723,-1.6408 14.96023,3.94185 1.01388,2.04116 1.12285,4.22028 1.39097,27.81466 l 0.29091,25.6 1.72202,3.3986 c 2.19691,4.33582 6.85876,8.62825 11.22538,10.33584 5.11035,1.99844 12.07349,1.88791 16.78617,-0.26647 4.49993,-2.05712 8.97401,-6.5491 11.09629,-11.14069 1.49668,-3.2381 1.62973,-4.13785 1.83721,-12.42385 0.59735,-23.85628 -4.54416,-42.75246 -16.48728,-60.59434 -26.46989,-39.54346 -78.21029,-53.66759 -121.29074,-33.11002 -19.77222,9.43511 -35.92427,25.60303 -45.38535,45.42997 -6.94794,14.56033 -9.75708,28.50046 -9.12459,45.28005 0.93226,24.73239 10.56279,46.75245 28.08277,64.21084 23.00854,22.92764 55.53218,32.66443 87.50176,26.1959 6.93683,-1.40356 17.1479,-5.04139 24.95223,-8.88957 3.96372,-1.95444 7.89099,-3.54778 8.72727,-3.54075 5.73623,0.0482 11.27838,6.5853 10.25655,12.09787 -0.95502,5.15222 -4.70043,8.03743 -17.64278,13.59081 -11.72033,5.02903 -25.03912,8.29654 -36.47509,8.94848 -2.88,0.16419 -6.28364,0.37528 -7.56364,0.46911 -1.28,0.0938 -5.63845,-0.0339 -9.68545,-0.28379 z m 14.34,-85.16509 c 25.18493,-5.28765 34.37049,-35.93128 16.24182,-54.18377 -10.01494,-10.08335 -24.80935,-12.42508 -37.62962,-5.9562 -4.79698,2.42047 -11.31608,8.93957 -13.73655,13.73655 -6.46888,12.82027 -4.12715,27.61468 5.9562,37.62962 8.05154,7.99693 18.25287,11.06549 29.16815,8.7738 z M 277.83074,331.2 c 0.014,-11.49087 0.77288,-18.08492 3.24843,-28.22519 10.74347,-44.00704 47.01132,-78.64721 90.92719,-86.84646 4.1965,-0.7835 8.61182,-1.57022 9.81182,-1.74827 L 384,214.05636 383.9672,158.08273 c -0.032,-54.54896 -0.19505,-60.046366 -1.78064,-60.046366 -0.19739,0 -35.91413,29.192726 -79.37052,64.872726 -43.4564,35.68 -80.21126,65.59312 -81.67747,66.4736 -6.91897,4.15494 -17.07483,5.87148 -25.10805,4.24374 -9.96264,-2.01869 -6.05788,0.93653 -93.00024,-70.38486 C 46.833172,117.14143 22.953871,97.884478 22.658503,98.427477 c -1.704745,3.133973 -1.777226,8.424873 -1.600702,116.845253 0.167818,103.07371 0.240196,109.83026 1.202874,112.29091 2.279575,5.82668 8.036403,11.29825 13.732437,13.05197 2.29821,0.70758 20.407118,0.83661 122.261438,0.87114 l 119.56363,0.0406 0.0126,-10.32728 z M 210.41915,211.35794 c 3.59892,-1.93377 153.85812,-125.264355 153.43982,-125.941181 -0.39463,-0.638533 -322.549879,-0.607153 -322.549879,0.03142 0,0.276497 34.411165,28.749221 76.469249,63.272731 58.32229,47.874 77.13456,63.01431 79.27273,63.79949 3.94649,1.44923 9.38817,0.97604 13.36808,-1.16246 z"
   id="path868" /></svg>
