<?xml version="1.0" encoding="UTF-8" standalone="no"?>
<svg
   xmlns:dc="http://purl.org/dc/elements/1.1/"
   xmlns:cc="http://creativecommons.org/ns#"
   xmlns:rdf="http://www.w3.org/1999/02/22-rdf-syntax-ns#"
   xmlns:svg="http://www.w3.org/2000/svg"
   xmlns="http://www.w3.org/2000/svg"
   xmlns:sodipodi="http://sodipodi.sourceforge.net/DTD/sodipodi-0.dtd"
   xmlns:inkscape="http://www.inkscape.org/namespaces/inkscape"
   version="1.1"
   id="Capa_1"
   x="0px"
   y="0px"
   viewBox="0 0 426.1 426.1"
   style="enable-background:new 0 0 426.1 426.1;"
   xml:space="preserve"
   sodipodi:docname="id-card.svg"
   inkscape:version="1.0.1 (3bc2e813f5, 2020-09-07)"><metadata
   id="metadata37"><rdf:RDF><cc:Work
       rdf:about=""><dc:format>image/svg+xml</dc:format><dc:type
         rdf:resource="http://purl.org/dc/dcmitype/StillImage" /></cc:Work></rdf:RDF></metadata><defs
   id="defs35" /><sodipodi:namedview
   pagecolor="#ffffff"
   bordercolor="#666666"
   borderopacity="1"
   objecttolerance="10"
   gridtolerance="10"
   guidetolerance="10"
   inkscape:pageopacity="0"
   inkscape:pageshadow="2"
   inkscape:window-width="1920"
   inkscape:window-height="1051"
   id="namedview33"
   showgrid="false"
   inkscape:zoom="2.0652429"
   inkscape:cx="213.05"
   inkscape:cy="212.08159"
   inkscape:window-x="-9"
   inkscape:window-y="-9"
   inkscape:window-maximized="1"
   inkscape:current-layer="Capa_1" />
<g
   id="g6">
	<g
   id="g4">
		<path
   d="M384.7,71.5H41.3C18.5,71.5,0,90,0,112.8v200.5c0,22.8,18.5,41.3,41.3,41.3h343.5c22.8,0,41.3-18.5,41.3-41.3V112.8    C426,90,407.5,71.5,384.7,71.5z M406.1,313.2H406c0,11.7-9.5,21.3-21.3,21.3H41.3c-11.7,0-21.3-9.5-21.3-21.3V112.8    c0-11.7,9.5-21.3,21.3-21.3h343.5c11.7,0,21.3,9.5,21.3,21.3V313.2z"
   id="path2" />
	</g>
<path
   style="fill:#ffffff;stroke:none;stroke-width:0.484205;fill-opacity:1"
   d="M 34.543914,353.72366 C 29.723123,352.84569 26.489487,351.73629 22.358622,349.54313 11.592692,343.82728 4.3794796,334.58431 1.3177978,322.58156 L 0.24210228,318.36449 V 213.05 107.73551 L 1.3177978,103.51845 C 2.6923051,98.129949 4.6120852,93.916512 7.7821002,89.330923 13.282203,81.374743 21.244136,75.830243 31.231194,73.001535 l 3.873636,-1.097159 176.00835,-0.125771 c 155.65388,-0.111227 176.50157,-0.04067 180.27325,0.610067 16.62913,2.869092 29.21019,14.854742 33.61947,32.028378 0.80042,3.11755 0.852,9.69472 0.852,108.63295 0,99.30531 -0.0491,105.50789 -0.86023,108.70393 -4.04872,15.95248 -14.62204,26.95243 -30.12886,31.34454 l -3.87363,1.09716 -176.49256,0.0797 C 71.25714,354.33992 37.357117,354.23601 34.543914,353.72366 Z M 391.30732,333.62903 c 7.24314,-2.25091 12.80379,-8.39009 14.39587,-15.89363 0.39334,-1.85381 0.54443,-31.10249 0.54443,-105.3924 0,-99.35606 -0.0308,-102.92541 -0.91224,-105.75752 -1.88469,-6.05552 -5.8023,-10.554757 -11.56894,-13.286536 l -3.25547,-1.542181 H 213.05 35.589035 l -3.255467,1.542181 c -5.766645,2.731779 -9.684254,7.231016 -11.568942,13.286536 -0.881528,2.83235 -0.912239,6.41505 -0.912239,106.41978 0,93.04065 0.0775,103.75427 0.767688,106.11871 2.030236,6.95521 7.253025,12.32356 14.127388,14.52112 2.67299,0.85448 9.430464,0.88917 178.130487,0.91422 173.28887,0.0257 175.3883,0.0148 178.42937,-0.93028 z"
   id="path862" /><path
   style="fill:#ffffff;fill-opacity:1;stroke-width:0.484205"
   d="m 68.638252,306.00201 c -6.792519,-0.80791 -12.364041,-3.43272 -17.515682,-8.25183 -3.811592,-3.56555 -6.607788,-7.8657 -8.390319,-12.90309 l -1.332762,-3.76635 v -66.82023 c 0,-63.42548 0.0451,-66.96635 0.887668,-69.69653 3.351636,-10.8603 11.460457,-18.8906 22.112048,-21.89793 2.985523,-0.84292 6.657293,-0.88861 71.420175,-0.88861 55.73783,0 68.76179,0.12023 70.93596,0.65481 8.80987,2.16615 16.97879,8.68994 20.70402,16.53446 3.47416,7.3158 3.26411,2.48603 3.26411,75.0517 0,73.41988 0.25233,67.97904 -3.5031,75.53591 -2.49532,5.0212 -8.18456,10.70943 -13.20196,13.19961 -7.56087,3.75252 -1.64644,3.47466 -75.77801,3.5601 -36.48481,0.042 -67.80578,-0.0984 -69.602148,-0.31202 z m 5.690622,-22.6213 c 3.213284,-24.23779 21.89807,-43.59934 46.158096,-47.82993 5.68379,-0.99117 27.89591,-0.99107 33.5477,1.5e-4 22.20593,3.89451 40.15225,20.98719 45.00753,42.86669 0.50233,2.26365 0.91804,4.82389 0.9238,5.6894 0.009,1.42712 0.1472,1.57367 1.47865,1.57367 3.38414,0 7.15628,-2.60911 8.75055,-6.05256 0.85842,-1.8541 0.89717,-4.68281 0.90735,-66.23426 0.0103,-62.3298 -0.0176,-64.35242 -0.91343,-66.09392 -1.18873,-2.31102 -3.20605,-4.21198 -5.47609,-5.16023 -1.59839,-0.66768 -9.27983,-0.7508 -68.51495,-0.74136 -66.105561,0.0105 -66.734622,0.0197 -68.893647,0.99847 -2.710584,1.22886 -4.155117,2.55483 -5.494423,5.04346 l -1.042339,1.93681 v 64.15711 64.1571 l 1.333431,2.26833 c 2.098471,3.56976 5.720204,5.65605 9.894657,5.69979 l 2.0282,0.0213 0.304915,-2.29997 z m 106.028306,0.24211 c -2.33914,-14.31579 -14.88389,-26.48226 -29.80122,-28.90259 -4.53405,-0.73566 -23.15661,-0.61819 -27.59736,0.17408 -7.2642,1.29598 -13.29226,4.47798 -18.87908,9.96558 -5.367934,5.27261 -8.818482,11.59215 -10.060452,18.42533 l -0.435387,2.39547 h 43.554869 43.55487 z"
   id="path864" /><path
   style="fill:#ffffff;fill-opacity:1;stroke-width:0.484205"
   d="m 68.638252,306.00201 c -6.792519,-0.80791 -12.364041,-3.43272 -17.515682,-8.25183 -3.811592,-3.56555 -6.607788,-7.8657 -8.390319,-12.90309 l -1.332762,-3.76635 v -66.82023 c 0,-63.42548 0.0451,-66.96635 0.887668,-69.69653 3.351636,-10.8603 11.460457,-18.8906 22.112048,-21.89793 2.985523,-0.84292 6.657293,-0.88861 71.420175,-0.88861 55.73783,0 68.76179,0.12023 70.93596,0.65481 8.80987,2.16615 16.97879,8.68994 20.70402,16.53446 3.47416,7.3158 3.26411,2.48603 3.26411,75.0517 0,73.41988 0.25233,67.97904 -3.5031,75.53591 -2.49532,5.0212 -8.18456,10.70943 -13.20196,13.19961 -7.56087,3.75252 -1.64644,3.47466 -75.77801,3.5601 -36.48481,0.042 -67.80578,-0.0984 -69.602148,-0.31202 z m 5.690622,-22.6213 c 3.213284,-24.23779 21.89807,-43.59934 46.158096,-47.82993 5.68379,-0.99117 27.89591,-0.99107 33.5477,1.5e-4 22.20593,3.89451 40.15225,20.98719 45.00753,42.86669 0.50233,2.26365 0.91804,4.82389 0.9238,5.6894 0.009,1.42712 0.1472,1.57367 1.47865,1.57367 3.38414,0 7.15628,-2.60911 8.75055,-6.05256 0.85842,-1.8541 0.89717,-4.68281 0.90735,-66.23426 0.0103,-62.3298 -0.0176,-64.35242 -0.91343,-66.09392 -1.18873,-2.31102 -3.20605,-4.21198 -5.47609,-5.16023 -1.59839,-0.66768 -9.27983,-0.7508 -68.51495,-0.74136 -66.105561,0.0105 -66.734622,0.0197 -68.893647,0.99847 -2.710584,1.22886 -4.155117,2.55483 -5.494423,5.04346 l -1.042339,1.93681 v 64.15711 64.1571 l 1.333431,2.26833 c 2.098471,3.56976 5.720204,5.65605 9.894657,5.69979 l 2.0282,0.0213 0.304915,-2.29997 z m 106.028306,0.24211 c -2.33914,-14.31579 -14.88389,-26.48226 -29.80122,-28.90259 -4.53405,-0.73566 -23.15661,-0.61819 -27.59736,0.17408 -7.2642,1.29598 -13.29226,4.47798 -18.87908,9.96558 -5.367934,5.27261 -8.818482,11.59215 -10.060452,18.42533 l -0.435387,2.39547 h 43.554869 43.55487 z"
   id="path866" /><path
   style="fill:#ffffff;fill-opacity:1;stroke-width:0.484205"
   d="m 36.073239,353.44325 c -5.002448,-0.47925 -8.25074,-1.49158 -13.2424,-4.12701 C 12.070138,343.63496 5.1504698,334.94763 1.7014395,322.78922 L 0.48420455,318.49826 V 213.11348 107.72871 L 1.6487103,103.4961 C 5.8264101,88.311509 15.765982,78.117281 30.996851,73.396049 l 4.107979,-1.273382 178.18728,0.135356 c 171.25077,0.130086 178.30979,0.169995 181.3346,1.025192 12.97145,3.667388 23.17897,12.89825 28.21863,25.518666 2.68274,6.718169 2.52836,-0.272405 2.52836,114.490229 v 106.525 l -1.1244,3.63153 c -4.56098,14.7309 -14.41949,24.65792 -29.04233,29.24417 l -4.01968,1.26072 -175.62021,-0.0696 C 118.97597,353.84568 38.203739,353.64737 36.073239,353.44325 Z M 300.81208,334.2222 c -48.00283,-0.068 -126.55291,-0.068 -174.55574,0 -48.002832,0.068 -8.72779,0.12369 87.27787,0.12369 96.00566,0 135.2807,-0.0557 87.27787,-0.12369 z M 35.098508,333.23017 c -5.812882,-2.01005 -10.354676,-6.07328 -12.977633,-11.61021 l -1.542182,-3.25547 v -105.3396 -105.3396 l 1.78452,-3.61073 c 3.183092,-6.440551 9.254092,-11.082607 15.732705,-12.029668 l 2.819367,-0.412142 -2.834421,-0.05904 c -2.394763,-0.04989 -3.37115,0.220465 -6.294659,1.742926 -6.146353,3.200804 -10.322903,8.557954 -11.452866,14.690294 -0.331427,1.79867 -0.453416,37.32134 -0.367484,107.00921 l 0.128634,104.31676 1.61137,3.29556 c 0.94632,1.93541 2.68151,4.3657 4.204239,5.88843 2.824704,2.82471 7.830997,5.56159 10.163141,5.55607 1.242576,-0.003 1.101636,-0.1248 -0.974731,-0.84279 z m 359.328312,-0.63855 c 3.97444,-1.95661 7.97101,-6.12641 10.02195,-10.45634 l 1.55675,-3.28658 V 212.8079 106.7671 l -1.60184,-3.27558 c -2.06319,-4.218998 -5.7048,-7.891297 -10.08988,-10.174889 -2.92351,-1.522461 -3.89989,-1.792812 -6.29466,-1.742926 l -2.83442,0.05904 2.80495,0.410342 c 6.55521,0.958973 12.53143,5.525027 15.74712,12.031383 l 1.78452,3.61064 0.12653,103.85392 c 0.11264,92.44901 0.0442,104.17661 -0.6233,106.79231 -1.78405,6.99122 -7.40648,12.8373 -14.51357,15.09087 -1.77217,0.56193 -1.81839,0.61689 -0.54362,0.64654 0.76625,0.0178 2.77302,-0.64689 4.45947,-1.47713 z M 207.89597,305.73765 c 10.82472,-2.77912 19.26759,-11.24125 22.42682,-22.47799 0.83735,-2.97825 0.88488,-6.69796 0.88488,-69.24125 0,-61.48187 -0.0593,-66.31354 -0.84919,-69.24125 -2.97935,-11.04223 -11.5925,-19.65537 -22.63473,-22.63473 -2.93026,-0.79062 -7.87267,-0.84919 -71.66227,-0.84919 -63.789602,0 -68.732009,0.0586 -71.662275,0.84919 -11.66165,3.14649 -20.849362,12.83034 -23.008517,24.25099 -1.095054,5.79219 -1.072751,129.79361 0.02434,135.31299 2.238989,11.26422 10.954168,20.66348 22.119668,23.8559 2.86238,0.81842 7.158364,0.87223 72.214784,0.90468 61.48998,0.0306 69.50174,-0.0503 72.14648,-0.72934 z m 171.70166,-57.34071 c 6.61671,-3.70784 6.94923,-13.11203 0.61705,-17.45114 l -1.73768,-1.19074 -61.52955,-0.14325 c -40.87654,-0.0952 -62.10416,0.0228 -63.24144,0.35147 -1.9216,0.55532 -4.49436,2.85742 -5.68688,5.0886 -0.47162,0.88241 -0.79962,2.65749 -0.81066,4.38727 -0.03,4.69437 2.83318,8.55343 7.36887,9.93203 0.72862,0.22146 28.67022,0.36522 62.09244,0.31946 l 60.76767,-0.0832 z m -52.23046,-51.96812 c 6.11884,-3.23036 7.10334,-11.78103 1.89791,-16.48382 -1.03085,-0.9313 -2.70678,-1.92446 -3.7243,-2.20701 -2.67594,-0.74306 -69.15629,-0.71331 -71.38219,0.032 -6.97388,2.33494 -9.36838,11.00022 -4.52206,16.36452 3.26072,3.60922 0.76665,3.39769 40.20479,3.40997 l 35.39182,0.011 2.13403,-1.12663 z"
   id="path868" /><path
   style="fill:#ffffff;fill-opacity:1;stroke-width:0.484205"
   d="m 68.638252,306.00201 c -6.792519,-0.80791 -12.364041,-3.43272 -17.515682,-8.25183 -3.811592,-3.56555 -6.607788,-7.8657 -8.390319,-12.90309 l -1.332762,-3.76635 v -66.82023 c 0,-63.42548 0.0451,-66.96635 0.887668,-69.69653 3.351636,-10.8603 11.460457,-18.8906 22.112048,-21.89793 2.985523,-0.84292 6.657293,-0.88861 71.420175,-0.88861 55.73783,0 68.76179,0.12023 70.93596,0.65481 8.80987,2.16615 16.97879,8.68994 20.70402,16.53446 3.47416,7.3158 3.26411,2.48603 3.26411,75.0517 0,73.41988 0.25233,67.97904 -3.5031,75.53591 -2.49532,5.0212 -8.18456,10.70943 -13.20196,13.19961 -7.56087,3.75252 -1.64644,3.47466 -75.77801,3.5601 -36.48481,0.042 -67.80578,-0.0984 -69.602148,-0.31202 z m 5.690622,-22.6213 c 3.213284,-24.23779 21.89807,-43.59934 46.158096,-47.82993 5.68379,-0.99117 27.89591,-0.99107 33.5477,1.5e-4 22.20593,3.89451 40.15225,20.98719 45.00753,42.86669 0.50233,2.26365 0.91804,4.82389 0.9238,5.6894 0.009,1.42712 0.1472,1.57367 1.47865,1.57367 3.38414,0 7.15628,-2.60911 8.75055,-6.05256 0.85842,-1.8541 0.89717,-4.68281 0.90735,-66.23426 0.0103,-62.3298 -0.0176,-64.35242 -0.91343,-66.09392 -1.18873,-2.31102 -3.20605,-4.21198 -5.47609,-5.16023 -1.59839,-0.66768 -9.27983,-0.7508 -68.51495,-0.74136 -66.105561,0.0105 -66.734622,0.0197 -68.893647,0.99847 -2.710584,1.22886 -4.155117,2.55483 -5.494423,5.04346 l -1.042339,1.93681 v 64.15711 64.1571 l 1.333431,2.26833 c 2.098471,3.56976 5.720204,5.65605 9.894657,5.69979 l 2.0282,0.0213 0.304915,-2.29997 z m 106.028306,0.24211 c -2.33914,-14.31579 -14.88389,-26.48226 -29.80122,-28.90259 -4.53405,-0.73566 -23.15661,-0.61819 -27.59736,0.17408 -7.2642,1.29598 -13.29226,4.47798 -18.87908,9.96558 -5.367934,5.27261 -8.818482,11.59215 -10.060452,18.42533 l -0.435387,2.39547 h 43.554869 43.55487 z"
   id="path870" /></g>
    <g
   id="g12">
	<g
   id="g10">
		<path
   d="M374.6,229.5H257.3c-5.5,0-10,4.5-10,10s4.5,10,10,10h117.3c5.5,0,10-4.5,10-10S380.1,229.5,374.6,229.5z"
   id="path8" />
	</g>
</g>
    <g
   id="g18">
	<g
   id="g16">
		<path
   d="M322.5,177.5h-65.2c-5.5,0-10,4.5-10,10s4.5,10,10,10h65.2c5.5,0,10-4.5,10-10S328,177.5,322.5,177.5z"
   id="path14" />
	</g>
</g>
    <g
   id="g24">
	<g
   id="g22">
		<path
   d="M200.1,121.5H71.9c-17,0-30.8,13.8-30.9,30.8v123.3c0,17,13.8,30.8,30.8,30.9h128.3c17,0,30.8-13.8,30.9-30.8V152.4    C231,135.3,217.2,121.5,200.1,121.5z M93.9,285.5c2.1-17,17.2-31,35.5-31h15.5c18.3,0,33.4,14,35.5,31H93.9z M211,152v123    c0.1,5.7-4.4,10.4-10.1,10.5c-0.2,0-0.3,0-0.5,0c-2.2-28-26.2-51-55.5-51h-15.5c-29.3,0-53.4,23-55.5,51h-1.6    c-6,0-11.3-4.5-11.3-10.5V152c0-6,5.3-10.5,11.3-10.5h128.2c5.7-0.1,10.4,4.4,10.5,10C211,151.7,211,151.8,211,152z"
   id="path20" />
	</g>
</g>
    <g
   id="g30">
	<g
   id="g28">
		<path
   d="M163.8,163.2c-7-7.1-16.6-11-26.5-11c-20.7,0-37.5,16.8-37.5,37.5s16.8,37.5,37.5,37.5s37.5-16.8,37.5-37.5    C174.8,179.8,170.8,170.2,163.8,163.2z M149.6,202.1c-6.8,6.8-17.9,6.8-24.7-0.1c-6.8-6.8-6.8-17.9,0.1-24.7    c6.8-6.8,17.9-6.8,24.7,0.1c3.3,3.3,5.1,7.7,5.1,12.4C154.8,194.4,152.9,198.8,149.6,202.1z"
   id="path26" />
	</g>
</g>
   
<path
   style="fill:#ffffff;fill-opacity:1;stroke-width:0.484205"
   d="m 68.638252,306.00201 c -6.792519,-0.80791 -12.364041,-3.43272 -17.515682,-8.25183 -3.811592,-3.56555 -6.607788,-7.8657 -8.390319,-12.90309 l -1.332762,-3.76635 v -66.82023 c 0,-63.42548 0.0451,-66.96635 0.887668,-69.69653 3.351636,-10.8603 11.460457,-18.8906 22.112048,-21.89793 2.985523,-0.84292 6.657293,-0.88861 71.420175,-0.88861 55.73783,0 68.76179,0.12023 70.93596,0.65481 8.80987,2.16615 16.97879,8.68994 20.70402,16.53446 3.47416,7.3158 3.26411,2.48603 3.26411,75.0517 0,73.41988 0.25233,67.97904 -3.5031,75.53591 -2.49532,5.0212 -8.18456,10.70943 -13.20196,13.19961 -7.56087,3.75252 -1.64644,3.47466 -75.77801,3.5601 -36.48481,0.042 -67.80578,-0.0984 -69.602148,-0.31202 z m 5.690622,-22.6213 c 3.213284,-24.23779 21.89807,-43.59934 46.158096,-47.82993 5.68379,-0.99117 27.89591,-0.99107 33.5477,1.5e-4 22.20593,3.89451 40.15225,20.98719 45.00753,42.86669 0.50233,2.26365 0.91804,4.82389 0.9238,5.6894 0.009,1.42712 0.1472,1.57367 1.47865,1.57367 3.38414,0 7.15628,-2.60911 8.75055,-6.05256 0.85842,-1.8541 0.89717,-4.68281 0.90735,-66.23426 0.0103,-62.3298 -0.0176,-64.35242 -0.91343,-66.09392 -1.18873,-2.31102 -3.20605,-4.21198 -5.47609,-5.16023 -1.59839,-0.66768 -9.27983,-0.7508 -68.51495,-0.74136 -66.105561,0.0105 -66.734622,0.0197 -68.893647,0.99847 -2.710584,1.22886 -4.155117,2.55483 -5.494423,5.04346 l -1.042339,1.93681 v 64.15711 64.1571 l 1.333431,2.26833 c 2.098471,3.56976 5.720204,5.65605 9.894657,5.69979 l 2.0282,0.0213 0.304915,-2.29997 z m 106.028306,0.24211 c -2.33914,-14.31579 -14.88389,-26.48226 -29.80122,-28.90259 -4.53405,-0.73566 -23.15661,-0.61819 -27.59736,0.17408 -7.2642,1.29598 -13.29226,4.47798 -18.87908,9.96558 -5.367934,5.27261 -8.818482,11.59215 -10.060452,18.42533 l -0.435387,2.39547 h 43.554869 43.55487 z"
   id="path872" /><path
   style="fill:#ffffff;fill-opacity:1;stroke-width:0.484205"
   d="m 131.91313,226.5492 c -7.82034,-1.12655 -14.90036,-4.83713 -21.04652,-11.03032 -3.23441,-3.25917 -4.62675,-5.12441 -6.40973,-8.58677 -8.279008,-16.07699 -4.15346,-35.42204 9.89903,-46.41736 6.51198,-5.09527 12.81918,-7.39669 21.46347,-7.83175 4.41757,-0.22234 6.06971,-0.091 9.68409,0.76984 17.09252,4.07096 28.83071,18.79872 28.84615,36.1929 0.01,10.75547 -3.84476,19.60471 -11.79724,27.08566 -4.21516,3.96522 -7.78776,6.1757 -12.91195,7.98901 -6.03219,2.13462 -11.60987,2.71003 -17.7273,1.82879 z m 12.95918,-20.85002 c 3.50966,-1.63831 6.61568,-4.74236 8.41755,-8.4122 1.26064,-2.56753 1.41349,-3.37629 1.41349,-7.4788 0,-3.96916 -0.17664,-4.97676 -1.28818,-7.34787 -6.3998,-13.65197 -25.36833,-13.94694 -31.98607,-0.49739 -1.47011,2.98777 -1.58589,3.57171 -1.55376,7.83676 0.0269,3.56947 0.25937,5.09969 1.03121,6.78737 2.00779,4.39016 5.73167,7.94275 10.20562,9.73618 3.4796,1.39484 10.07605,1.09568 13.76014,-0.62405 z"
   id="path874" /><path
   style="fill:#ffffff;fill-opacity:1;stroke-width:0.484205"
   d="m 253.48108,196.38956 c -4.35155,-1.92857 -6.77285,-6.87927 -5.53203,-11.31104 0.80357,-2.87009 3.89521,-6.12225 6.50044,-6.83796 1.32143,-0.36303 12.71445,-0.53295 35.85712,-0.53479 l 33.9203,-0.003 2.46135,1.22654 c 7.21888,3.59732 7.28141,13.53496 0.1082,17.19447 -1.79314,0.91478 -3.05361,0.94652 -36.85969,0.92822 -28.03631,-0.0152 -35.29219,-0.14709 -36.45569,-0.66274 z"
   id="path876" /><path
   style="fill:#ffffff;fill-opacity:1;stroke-width:0.484205"
   d="m 254.21236,248.72837 c -2.37133,-0.75516 -5.46258,-4.01127 -6.22256,-6.55439 -1.23257,-4.12456 0.57309,-8.5271 4.4907,-10.94918 l 2.37725,-1.46974 h 61.08572 61.08572 l 2.37725,1.46974 c 3.91761,2.42208 5.72328,6.82462 4.4907,10.94918 -0.80381,2.6898 -3.88635,5.81019 -6.51587,6.59587 -2.71783,0.81207 -120.61331,0.77237 -123.16891,-0.0415 z"
   id="path878" /></svg>
