<?xml version="1.0" encoding="UTF-8" standalone="no"?>
<svg
   xmlns:dc="http://purl.org/dc/elements/1.1/"
   xmlns:cc="http://creativecommons.org/ns#"
   xmlns:rdf="http://www.w3.org/1999/02/22-rdf-syntax-ns#"
   xmlns:svg="http://www.w3.org/2000/svg"
   xmlns="http://www.w3.org/2000/svg"
   xmlns:sodipodi="http://sodipodi.sourceforge.net/DTD/sodipodi-0.dtd"
   xmlns:inkscape="http://www.inkscape.org/namespaces/inkscape"
   id="Capa_1"
   enable-background="new 0 0 512.627 512.627"
   height="512"
   viewBox="0 0 512.627 512.627"
   width="512"
   version="1.1"
   sodipodi:docname="password.svg"
   inkscape:version="1.0.1 (3bc2e813f5, 2020-09-07)">
  <metadata
     id="metadata21">
    <rdf:RDF>
      <cc:Work
         rdf:about="">
        <dc:format>image/svg+xml</dc:format>
        <dc:type
           rdf:resource="http://purl.org/dc/dcmitype/StillImage" />
      </cc:Work>
    </rdf:RDF>
  </metadata>
  <defs
     id="defs19" />
  <sodipodi:namedview
     pagecolor="#ffffff"
     bordercolor="#666666"
     borderopacity="1"
     objecttolerance="10"
     gridtolerance="10"
     guidetolerance="10"
     inkscape:pageopacity="0"
     inkscape:pageshadow="2"
     inkscape:window-width="1920"
     inkscape:window-height="1051"
     id="namedview17"
     showgrid="false"
     inkscape:zoom="1.71875"
     inkscape:cx="256"
     inkscape:cy="254.83636"
     inkscape:window-x="-9"
     inkscape:window-y="-9"
     inkscape:window-maximized="1"
     inkscape:current-layer="Capa_1" />
  <g
     id="g14">
    <path
       d="m479.153 296.256h-25.919c-4.143 0-7.5 3.358-7.5 7.5s3.357 7.5 7.5 7.5h25.919c10.187 0 18.474 8.287 18.474 18.474v93.798c0 10.187-8.287 18.474-18.474 18.474h-445.679c-10.187 0-18.474-8.287-18.474-18.474v-93.798c0-10.187 8.287-18.474 18.474-18.474h387.799c4.143 0 7.5-3.358 7.5-7.5s-3.357-7.5-7.5-7.5h-32.318c.051-1.486.085-2.968.085-4.435 0-37.293-15.877-73.042-43.56-98.082-2.699-2.441-6.006-4.048-9.551-4.688v-15.839c0-4.142-3.357-7.5-7.5-7.5s-7.5 3.358-7.5 7.5v15.524h-21v-53.996c0-23.774-19.342-43.116-43.116-43.116s-43.116 19.342-43.116 43.116v53.996h-21v-53.996c0-35.354 28.762-64.116 64.116-64.116s64.116 28.762 64.116 64.116v6.509c0 4.142 3.357 7.5 7.5 7.5s7.5-3.358 7.5-7.5v-6.509c0-43.625-35.491-79.116-79.116-79.116s-79.116 35.491-79.116 79.116v54.31c-3.545.639-6.852 2.246-9.549 4.686-7.675 6.943-14.535 14.782-20.387 23.299-2.346 3.414-1.48 8.083 1.934 10.429 3.416 2.347 8.084 1.48 10.429-1.934 5.192-7.556 11.277-14.509 18.088-20.67.802-.725 1.855-1.125 2.966-1.125h151.271c1.111 0 2.167.4 2.971 1.127 24.544 22.2 38.621 53.895 38.621 86.957 0 1.465-.037 2.947-.094 4.435h-85.627l-4.35-13.864c5.667-6.869 8.499-15.568 7.974-24.496-1.041-17.72-15.185-31.911-32.898-33.011-9.822-.603-19.178 2.755-26.329 9.475-7.051 6.627-11.095 15.975-11.095 25.648 0 8.142 2.847 16.083 8.016 22.36.034.042.048.077.063.063l-4.378 13.824h-85.629c-.031-.818-.077-1.642-.09-2.451-.235-14.256 2.063-28.227 6.829-41.526 1.397-3.899-.63-8.193-4.53-9.59-3.898-1.398-8.193.631-9.59 4.53-5.378 15.007-7.971 30.764-7.707 46.834.012.728.056 1.469.081 2.204h-91.213c-18.458.002-33.474 15.018-33.474 33.476v93.798c0 18.458 15.016 33.474 33.474 33.474h445.68c18.457 0 33.474-15.016 33.474-33.474v-93.798c-.001-18.458-15.018-33.474-33.475-33.474zm-250.456-161.515c0-15.503 12.613-28.116 28.116-28.116s28.116 12.613 28.116 28.116v53.996h-56.232zm12.519 138.092c-3.006-3.65-4.595-8.084-4.595-12.824 0-5.632 2.261-10.858 6.367-14.718 4.102-3.855 9.484-5.781 15.126-5.434 9.985.62 18.267 8.93 18.854 18.92.303 5.135-1.32 10.132-4.57 14.07-3.276 3.972-4.316 9.236-2.782 14.08l2.954 9.329h-31.513l2.954-9.327c1.532-4.842.488-10.111-2.795-14.096z"
       id="path2" />
    <path
       d="m230.535 376.629c0 14.214 11.564 25.779 25.779 25.779s25.779-11.564 25.779-25.779-11.564-25.779-25.779-25.779-25.779 11.565-25.779 25.779zm36.558 0c0 5.943-4.836 10.779-10.779 10.779s-10.779-4.835-10.779-10.779 4.835-10.779 10.779-10.779 10.779 4.836 10.779 10.779z"
       id="path4" />
    <path
       d="m149.204 376.629c0 14.214 11.564 25.779 25.779 25.779s25.779-11.564 25.779-25.779-11.564-25.779-25.779-25.779c-14.214 0-25.779 11.565-25.779 25.779zm36.558 0c0 5.943-4.835 10.779-10.779 10.779-5.943 0-10.779-4.835-10.779-10.779s4.835-10.779 10.779-10.779 10.779 4.836 10.779 10.779z"
       id="path6" />
    <path
       d="m67.874 376.629c0 14.214 11.564 25.779 25.779 25.779 14.214 0 25.779-11.564 25.779-25.779s-11.564-25.779-25.779-25.779-25.779 11.565-25.779 25.779zm36.558 0c0 5.943-4.835 10.779-10.779 10.779s-10.779-4.835-10.779-10.779 4.835-10.779 10.779-10.779c5.943 0 10.779 4.836 10.779 10.779z"
       id="path8" />
    <path
       d="m311.865 376.629c0 14.214 11.564 25.779 25.778 25.779 14.215 0 25.779-11.564 25.779-25.779s-11.564-25.779-25.779-25.779c-14.213 0-25.778 11.565-25.778 25.779zm36.558 0c0 5.943-4.836 10.779-10.779 10.779s-10.778-4.835-10.778-10.779 4.835-10.779 10.778-10.779 10.779 4.836 10.779 10.779z"
       id="path10" />
    <path
       d="m393.195 376.629c0 14.214 11.564 25.779 25.779 25.779 14.214 0 25.778-11.564 25.778-25.779s-11.564-25.779-25.778-25.779-25.779 11.565-25.779 25.779zm36.558 0c0 5.943-4.835 10.779-10.778 10.779s-10.779-4.835-10.779-10.779 4.836-10.779 10.779-10.779 10.778 4.836 10.778 10.779z"
       id="path12" />
  </g>
  <path
     style="fill:#ffffff;stroke-width:0.581818"
     d="M 25.949745,455.21807 C 17.381292,453.14481 8.2227444,446.03482 4.2013904,438.33431 0.13738345,430.55213 0.29090909,432.99367 0.29090909,376.14545 c 0,-56.90365 -0.16199645,-54.35117 3.95106981,-62.25454 2.5948374,-4.98605 9.5240631,-11.70111 14.6093831,-14.15784 7.443774,-3.59609 6.954459,-3.5664 58.952274,-3.57752 l 47.258184,-0.0101 -0.33591,-1.67954 c -0.50638,-2.53192 0.82917,-18.99088 2.12493,-26.18689 1.23847,-6.87793 4.67859,-19.43163 6.05343,-22.09028 2.94933,-5.70339 11.36885,-4.74214 13.0909,1.49458 0.44154,1.59913 0.13686,3.28797 -1.68723,9.35229 -2.90956,9.67311 -4.60263,19.87742 -5.0631,30.51581 l -0.3723,8.60154 43.2698,-0.14921 43.26979,-0.1492 2.16493,-6.87568 2.16493,-6.87567 -2.27005,-3.51221 c -11.17588,-17.29127 -5.25607,-40.10703 12.87879,-49.63663 17.42508,-9.15662 38.54701,-2.15939 47.39282,15.70019 5.42873,10.96055 4.53923,23.89216 -2.35821,34.28359 l -2.08743,3.14483 2.18773,7.03125 2.18772,7.03123 h 42.85423 42.85423 l 0.3349,-1.6745 c 0.60689,-3.03448 -0.71707,-18.56618 -2.212,-25.9494 -3.77409,-18.63958 -12.19967,-36.67709 -23.76207,-50.8699 -5.34788,-6.56451 -11.85379,-13.21812 -13.64971,-13.95959 -1.15153,-0.47543 -22.60193,-0.61198 -78.58668,-0.50026 l -77.00283,0.15365 -5.90647,6.1091 c -3.24856,3.36 -7.78446,8.61063 -10.07979,11.66808 -4.34613,5.78918 -5.8854,6.9501 -9.21521,6.9501 -3.97185,0 -7.48819,-4.86119 -6.46507,-8.93767 0.19073,-0.75993 2.22157,-3.83801 4.51298,-6.84019 9.47336,-12.4119 17.92759,-20.46769 23.44998,-22.34481 l 3.23651,-1.10012 0.002,-30.86134 c 0.003,-34.48407 0.22057,-37.21193 3.83703,-48.02496 4.11183,-12.294199 10.75301,-22.727073 20.31132,-31.907788 11.4006,-10.950219 23.94234,-17.517335 39.84932,-20.865926 6.84425,-1.440787 22.17771,-1.425919 29.09091,0.02821 10.79469,2.270559 21.37932,6.742396 30.1888,12.754281 9.99955,6.824031 20.8741,19.649626 26.1777,30.874323 5.09871,10.79109 7.00391,19.01977 7.43185,32.09871 0.31824,9.72586 0.30046,9.92489 -1.06541,11.92728 -0.90471,1.3263 -2.25358,2.33749 -3.86843,2.89998 -2.30402,0.80253 -2.62856,0.78195 -4.58844,-0.29091 -4.08061,-2.23378 -4.42818,-3.23494 -4.89739,-14.1068 -0.47958,-11.11194 -1.56176,-16.37428 -5.01011,-24.36277 C 308.1713,92.044157 293.78647,79.030153 276.07273,73.346014 268.57916,70.941413 262.41289,70.184055 253.44279,70.566545 238.50568,71.203473 226.23084,76.02947 214.55114,85.857259 202.65439,95.867673 194.41164,111.56275 192.62196,127.61273 192.2675,130.79153 192,145.08662 192,160.8498 v 27.65929 h 10.72602 10.72602 L 213.68091,158.4 c 0.25053,-32.9572 0.27551,-33.22114 3.90024,-41.21532 10.08807,-22.248756 36.78657,-31.714967 58.1208,-20.607288 11.23187,5.847888 19.14781,15.750018 22.23244,27.810788 1.03424,4.04387 1.12016,6.67072 1.12016,34.25034 v 29.87057 h 10.71027 10.71028 l 0.2083,-8.58182 c 0.23597,-9.72088 0.82157,-11.56474 4.1789,-13.15791 2.72482,-1.29301 4.49364,-1.19572 6.825,0.37538 3.12234,2.10414 3.4219,3.24542 3.4314,13.07344 0.007,7.02478 0.17098,8.87273 0.78837,8.87273 0.42889,0 2.35758,0.78843 4.28599,1.75206 2.64833,1.32339 5.27159,3.56545 10.72167,9.16364 22.86587,23.48728 35.94681,53.92112 36.99796,86.07869 l 0.32729,10.01258 17.70727,0.16924 17.70727,0.16924 1.99092,2.17327 c 3.40398,3.71576 2.70593,8.27077 -1.67705,10.94324 -1.83318,1.11776 -4.6098,1.13372 -197.68097,1.13586 -217.2572306,0.002 -198.822531,-0.35301 -204.469238,3.94223 -2.108544,1.60389 -3.469474,3.31143 -4.945455,6.20501 l -2.036363,3.99216 v 51.2709 51.27089 l 1.919876,3.89982 c 2.207532,4.48414 5.472775,7.49713 9.981348,9.21025 2.891,1.09849 7.294924,1.12001 229.262412,1.12001 221.96749,0 226.37141,-0.0215 229.26241,-1.12001 4.50857,-1.71312 7.77382,-4.72611 9.98135,-9.21025 l 1.91988,-3.89982 v -51.27089 -51.2709 l -2.03637,-3.99216 c -1.47598,-2.89358 -2.83691,-4.60112 -4.94545,-6.20501 -4.75311,-3.61551 -6.68032,-3.94005 -23.39702,-3.94005 -16.0476,0 -17.51374,-0.23693 -19.85075,-3.20796 -1.68034,-2.1362 -1.70231,-5.9654 -0.0463,-8.07066 2.46224,-3.13023 3.28762,-3.26768 19.55609,-3.25674 16.862,0.0113 20.26727,0.46754 26.70481,3.57752 5.08532,2.45673 12.01454,9.17179 14.60938,14.15784 4.11307,7.90337 3.95107,5.35089 3.95107,62.25454 0,47.12947 -0.0816,51.49545 -1.02658,54.91614 -3.20131,11.5885 -12.65127,21.01986 -23.95904,23.9119 -4.55627,1.1653 -5.87033,1.17169 -230.96199,1.12349 C 61.767674,456.05544 28.890826,455.9297 25.949745,455.21807 Z M 272.29091,295.47836 c 0,-0.36691 -0.78546,-3.11913 -1.74546,-6.11605 -2.59002,-8.08553 -2.34035,-9.97049 2.29236,-17.30701 1.83294,-2.90272 3.14397,-5.77953 3.57078,-7.83547 1.98781,-9.57526 -2.60429,-18.84533 -11.42662,-23.06688 -2.9317,-1.40284 -4.20339,-1.65775 -8.40015,-1.68381 -4.16587,-0.0259 -5.46596,0.2117 -8.24736,1.50705 -7.35622,3.42589 -11.54092,9.45384 -11.98938,17.2704 -0.30862,5.37927 0.36237,8.09105 3.0432,12.29886 5.12148,8.03864 5.59773,11.11713 2.97639,19.23935 -0.87086,2.69836 -1.6855,5.23338 -1.81031,5.63338 -0.17775,0.56968 3.23627,0.72727 15.75481,0.72727 11.62864,0 15.98174,-0.1817 15.98174,-0.66709 z m 12.68381,-136.49654 c -0.19009,-29.13552 -0.2105,-29.57745 -1.53804,-33.30909 -2.77067,-7.78822 -7.67517,-13.20496 -15.21174,-16.80052 -3.89034,-1.85601 -4.97145,-2.10327 -10.09646,-2.30912 -4.22851,-0.16984 -6.72386,0.0359 -9.47811,0.78144 -6.80302,1.84149 -14.11587,7.81868 -17.33284,14.16707 -3.0726,6.06346 -3.22689,7.90539 -3.2362,38.63385 l -0.009,28.36364 h 28.54731 28.54732 z"
     id="path846"
     transform="scale(1.0012246)" />
  <path
     style="fill:#ffffff;stroke-width:0.581818"
     d="m 167.26513,400.44117 c -7.06921,-2.52489 -12.45227,-7.35221 -15.59387,-13.98396 -1.73515,-3.66281 -1.85308,-4.32097 -1.85308,-10.34193 0,-6.26052 0.0577,-6.54694 2.18716,-10.85559 2.32436,-4.70302 6.76337,-9.40197 10.85265,-11.48817 13.58248,-6.92926 30.04859,-0.76188 35.65817,13.35575 1.81016,4.55563 1.81016,13.48074 0,18.03637 -2.55836,6.43862 -8.27789,12.14883 -14.66161,14.63772 -4.47952,1.74648 -12.61273,2.06015 -16.58942,0.63981 z m 12.8076,-14.54378 c 1.77089,-0.96427 4.21654,-3.74036 4.90844,-5.57163 0.34036,-0.90083 0.61883,-2.78197 0.61883,-4.18031 0,-4.35702 -2.15569,-7.96858 -5.93474,-9.94285 -2.47382,-1.29238 -7.75447,-1.04947 -10.47946,0.48206 -6.74799,3.79258 -7.1367,14.53143 -0.67062,18.52769 3.48988,2.15686 8.32791,2.44362 11.55755,0.68504 z"
     id="path848"
     transform="scale(1.0012246)" />
  <path
     style="fill:#ffffff;stroke-width:0.581818"
     d="m 85.908887,400.33854 c -8.43189,-2.77547 -14.676489,-9.50719 -17.045263,-18.3749 -1.43329,-5.36565 -0.709485,-11.52678 1.982197,-16.87273 2.166928,-4.30374 4.106668,-6.61197 7.915324,-9.41902 16.440724,-12.11711 40.004425,-0.0782 39.983045,20.42769 -0.0106,10.20246 -5.56273,18.74691 -15.07605,23.20144 -5.055517,2.3672 -12.413705,2.79708 -17.759253,1.03752 z m 14.164793,-15.17558 c 3.61665,-2.57528 5.40217,-7.86357 4.05583,-12.01237 -1.67003,-5.14629 -5.2425,-7.76944 -10.579059,-7.76787 -7.384673,0.002 -12.111464,6.04012 -10.684233,13.64792 0.407102,2.17003 3.089573,5.69178 5.213575,6.84477 3.242587,1.7602 9.00181,1.41809 11.993887,-0.71245 z"
     id="path850"
     transform="scale(1.0012246)" />
  <path
     style="fill:#ffffff;stroke-width:0.581818"
     d="m 248.24229,400.24803 c -9.1951,-3.16306 -15.66962,-10.72728 -17.34367,-20.2627 -1.86606,-10.62916 4.21611,-21.75542 14.62865,-26.76054 4.15781,-1.99858 4.6518,-2.09752 10.47273,-2.09752 5.81661,0 6.31953,0.10051 10.50468,2.09924 7.84021,3.74431 13.01602,10.53198 14.54196,19.07062 2.1303,11.92045 -5.67775,24.36445 -17.61968,28.08119 -4.60011,1.43172 -10.79848,1.37853 -15.18467,-0.13029 z m 11.53953,-13.75145 c 2.16065,-0.56514 5.06558,-3.21984 6.15964,-5.62904 2.17038,-4.77933 0.80439,-10.39595 -3.28739,-13.5169 -1.98188,-1.51166 -2.6412,-1.67791 -6.65407,-1.67791 -4.01287,0 -4.67219,0.16625 -6.65407,1.67791 -7.31651,5.58057 -4.83568,17.44011 4.07329,19.47223 2.1412,0.48841 3.51771,0.41782 6.3626,-0.32629 z"
     id="path852"
     transform="scale(1.0012246)" />
  <path
     style="fill:#ffffff;stroke-width:0.581818"
     d="m 329.75241,400.35763 c -11.33664,-3.73574 -18.54805,-14.15863 -17.73832,-25.63777 1.33567,-18.93515 21.01676,-29.62467 37.81039,-20.53621 3.88167,2.1007 8.3004,6.99728 10.49468,11.62957 1.74446,3.68271 1.86266,4.33835 1.86266,10.33223 0,5.99389 -0.1182,6.64953 -1.86266,10.33224 -2.57774,5.44182 -6.9003,9.84506 -12.26979,12.4988 -3.88317,1.91917 -4.87508,2.1568 -9.64342,2.31024 -4.0087,0.129 -6.13559,-0.0994 -8.65354,-0.9291 z m 13.75883,-15.16161 c 4.57047,-2.82471 6.04195,-9.66483 3.14321,-14.61114 -2.04593,-3.49112 -5.15636,-5.20306 -9.45347,-5.20306 -6.50422,0 -10.80098,4.3044 -10.80098,10.8202 0,7.04941 5.85645,11.90607 12.87498,10.67701 1.16123,-0.20336 3.06755,-0.96071 4.23626,-1.68301 z"
     id="path854"
     transform="scale(1.0012246)" />
  <path
     style="fill:#ffffff;stroke-width:0.581818"
     d="m 411.63636,400.63875 c -5.72333,-1.8148 -10.91399,-5.67433 -14.35223,-10.67164 -5.46661,-7.94545 -5.41575,-19.68356 0.12044,-27.79861 8.16286,-11.96526 24.41622,-14.91193 35.83428,-6.49661 12.08369,8.90589 14.0383,25.12168 4.45194,36.93397 -5.73943,7.0721 -17.57575,10.72138 -26.05443,8.03289 z m 12.28385,-14.76919 c 2.11778,-1.13953 4.80586,-4.66562 5.21357,-6.83892 1.42723,-7.6078 -3.29956,-13.64575 -10.68423,-13.64792 -3.61367,-0.001 -7.05788,1.5446 -8.71979,3.9132 -4.86776,6.93763 -1.50962,16.13446 6.39855,17.52352 2.70906,0.47584 5.85494,0.0923 7.7919,-0.94988 z"
     id="path856"
     transform="scale(1.0012246)" />
</svg>
