<?xml version="1.0" encoding="UTF-8" standalone="no"?>
<svg
   xmlns:dc="http://purl.org/dc/elements/1.1/"
   xmlns:cc="http://creativecommons.org/ns#"
   xmlns:rdf="http://www.w3.org/1999/02/22-rdf-syntax-ns#"
   xmlns:svg="http://www.w3.org/2000/svg"
   xmlns="http://www.w3.org/2000/svg"
   xmlns:sodipodi="http://sodipodi.sourceforge.net/DTD/sodipodi-0.dtd"
   xmlns:inkscape="http://www.inkscape.org/namespaces/inkscape"
   id="outline"
   viewBox="0 0 512 512"
   width="512"
   height="512"
   version="1.1"
   sodipodi:docname="register.svg"
   inkscape:version="1.0.1 (3bc2e813f5, 2020-09-07)">
  <metadata
     id="metadata35">
    <rdf:RDF>
      <cc:Work
         rdf:about="">
        <dc:format>image/svg+xml</dc:format>
        <dc:type
           rdf:resource="http://purl.org/dc/dcmitype/StillImage" />
      </cc:Work>
    </rdf:RDF>
  </metadata>
  <defs
     id="defs33" />
  <sodipodi:namedview
     pagecolor="#ffffff"
     bordercolor="#666666"
     borderopacity="1"
     objecttolerance="10"
     gridtolerance="10"
     guidetolerance="10"
     inkscape:pageopacity="0"
     inkscape:pageshadow="2"
     inkscape:window-width="1920"
     inkscape:window-height="1051"
     id="namedview31"
     showgrid="false"
     inkscape:zoom="1.71875"
     inkscape:cx="256"
     inkscape:cy="254.83636"
     inkscape:window-x="-9"
     inkscape:window-y="-9"
     inkscape:window-maximized="1"
     inkscape:current-layer="outline" />
  <path
     d="M32,96H96v16a16.02085,16.02085,0,0,0,16,16H272a16.02085,16.02085,0,0,0,16-16V96h64V200h16V96a16.02085,16.02085,0,0,0-16-16H282.07129a15.77035,15.77035,0,0,0-1.19629-1.03125l-20.4375-13.625A8.00771,8.00771,0,0,0,256,64H240V52a16.04729,16.04729,0,0,0-6.40625-12.79688l-26.65625-20A16.11552,16.11552,0,0,0,197.33594,16H186.66406a16.07518,16.07518,0,0,0-9.59375,3.20312L150.41406,39.19531A16.05841,16.05841,0,0,0,144,52V64H128a8.00771,8.00771,0,0,0-4.4375,1.34375l-20.4375,13.625A15.77035,15.77035,0,0,0,101.92871,80H32A16.02085,16.02085,0,0,0,16,96V480a16.02085,16.02085,0,0,0,16,16H312V480H32Zm80-3.71875L130.42188,80H152a7.99539,7.99539,0,0,0,8-8V52l26.66406-20h10.67188L224,52V72a7.99539,7.99539,0,0,0,8,8h21.57812L272,92.28125V112l-160,.01562Z"
     id="path2" />
  <circle
     cx="192"
     cy="56"
     r="8"
     id="circle4" />
  <path
     d="M130.875,297.85156l-19.34424,16.12012A15.79119,15.79119,0,0,0,104,312H72a16.02085,16.02085,0,0,0-16,16v32a16.02085,16.02085,0,0,0,16,16h32a16.02085,16.02085,0,0,0,16-16V328c0-.07812-.022-.15039-.02295-.228L141.125,310.14844ZM104,360H72V328H94.69678L82.875,337.85156l10.25,12.29688L104,341.08594Z"
     id="path6" />
  <path
     d="M130.875,385.85156l-19.34424,16.12012A15.79119,15.79119,0,0,0,104,400H72a16.02085,16.02085,0,0,0-16,16v32a16.02085,16.02085,0,0,0,16,16h32a16.02085,16.02085,0,0,0,16-16V416c0-.07812-.022-.15039-.02295-.228L141.125,398.14844ZM104,448H72V416H94.69678L82.875,425.85156l10.25,12.29688L104,429.08594Z"
     id="path8" />
  <rect
     x="168"
     y="320"
     width="16"
     height="16"
     id="rect10" />
  <rect
     x="200"
     y="320"
     width="104"
     height="16"
     id="rect12" />
  <rect
     x="152"
     y="352"
     width="56"
     height="16"
     id="rect14" />
  <rect
     x="224"
     y="352"
     width="80"
     height="16"
     id="rect16" />
  <rect
     x="168"
     y="408"
     width="16"
     height="16"
     id="rect18" />
  <rect
     x="200"
     y="408"
     width="112"
     height="16"
     id="rect20" />
  <rect
     x="152"
     y="440"
     width="56"
     height="16"
     id="rect22" />
  <rect
     x="224"
     y="440"
     width="88"
     height="16"
     id="rect24" />
  <path
     d="M328,200V168a16.02085,16.02085,0,0,0-16-16H72a16.02085,16.02085,0,0,0-16,16v96a16.02085,16.02085,0,0,0,16,16H264V264H152V216H272V200H152V168H312v32ZM136,264H72V216h64ZM72,200V168h64v32Z"
     id="path26" />
  <path
     d="M495.5625,309.39844a7.99629,7.99629,0,0,0-4.125-4.625L456,287.89844V273.28906a24.0689,24.0689,0,0,0-12.09375-20.84375l-41.22656-23.55469a23.8759,23.8759,0,0,0-20.82031-1.45312l-28.709,11.48486L323.4375,224.77344a7.90536,7.90536,0,0,0-5.96875-.35938l-24,8a7.99315,7.99315,0,0,0-5.05469,10.11719l8,24a7.994,7.994,0,0,0,4.14844,4.69531l29.96338,14.26758A23.71272,23.71272,0,0,0,328,296v54.10938a16.14018,16.14018,0,0,0,1.6875,7.15624L344,385.89062V496h16V385.89062a16.14018,16.14018,0,0,0-1.6875-7.15624L344,350.10938V296a8,8,0,0,1,16,0v27.3125l26.34375,26.34375,11.3125-11.3125L376,316.6875v-9.53809l64,30.47608v7.95263a39.52769,39.52769,0,0,1-6.65625,21.98438A55.49954,55.49954,0,0,0,424,398.42188V496h16V398.42188a39.52769,39.52769,0,0,1,6.65625-21.98438A55.49954,55.49954,0,0,0,456,345.57812v-.33349l12.5625,5.98193a8.00806,8.00806,0,0,0,10.59375-3.64844l16-32A7.97885,7.97885,0,0,0,495.5625,309.39844ZM387.79688,242.29688a8.01072,8.01072,0,0,1,6.94531.48437l41.22656,23.55469A8.0305,8.0305,0,0,1,440,273.28906v6.99024l-67.18066-31.99073Zm80.55468,91.10937-93.562-44.56006a23.75878,23.75878,0,0,0-31.69141-15.0918l-32.58252-15.5122-4.39843-13.17969,13.35156-4.45312,157.72656,75.10937Z"
     id="path28" />
  <path
     style="fill:#ffffff;stroke-width:0.581818"
     d="M 27.923506,495.16547 C 23.921395,493.94809 19.807863,490.43355 17.664107,486.4 16.615094,484.42625 16.581818,478.32625 16.581818,288 V 91.636364 l 1.259791,-2.327273 C 19.335491,86.54937 22.763095,83.171869 25.6,81.664105 c 1.914263,-1.017391 4.261978,-1.092003 39.154469,-1.244317 l 37.118111,-0.162031 11.97859,-7.983423 11.97858,-7.983425 9.23058,-0.206417 9.23058,-0.206416 v -6.828388 c 0,-7.647676 0.79281,-11.181788 3.22328,-14.368285 1.82763,-2.396146 30.40416,-23.975467 33.43126,-25.245334 2.87986,-1.208094 19.22924,-1.208094 22.1091,0 3.0271,1.269867 31.60363,22.849188 33.43126,25.245334 2.43047,3.186497 3.22328,6.720609 3.22328,14.368285 v 6.828388 l 9.23058,0.206416 9.23058,0.206417 11.97858,7.983425 11.97859,7.983423 37.11811,0.162031 c 36.80586,0.160669 37.13768,0.172625 39.44538,1.421824 2.75972,1.493882 6.13722,4.921483 7.64499,7.758388 1.02935,1.936774 1.08997,4.675421 1.23945,56 l 0.15717,53.96364 H 359.86626 352 V 147.78182 96 h -31.92444 -31.92444 l -0.31488,9.45455 c -0.17661,5.30258 -0.64879,10.47656 -1.07522,11.78181 -1.14599,3.50772 -6.47726,8.5904 -10.10647,9.63523 -4.35906,1.25493 -164.95004,1.25493 -169.3091,0 -3.62921,-1.04483 -8.960478,-6.12751 -10.106468,-9.63523 -0.426432,-1.30525 -0.898613,-6.47923 -1.075218,-11.78181 L 95.848879,96 H 63.92444 32 v 192 192 h 139.92727 139.92728 v 7.85455 7.85454 l -141.23637,-0.05 C 92.938182,495.63158 28.725578,495.40945 27.923506,495.16547 Z M 272.29091,102.20085 V 92.110796 l -9.3061,-6.200856 -9.3061,-6.200849 h -11.36713 c -12.7214,0 -14.32399,-0.344186 -16.62509,-3.570537 -1.33946,-1.878057 -1.40349,-2.414883 -1.59222,-13.350481 L 223.89763,51.394327 210.94427,41.697164 197.9909,32 h -5.92225 -5.92225 l -13.01221,9.745455 -13.01221,9.745454 -0.20644,11.345455 c -0.19791,10.876443 -0.26414,11.426344 -1.60203,13.30219 -2.3011,3.226351 -3.90369,3.570537 -16.62509,3.570537 h -11.36713 l -9.3061,6.200849 -9.3061,6.200856 v 10.090054 10.09006 H 192 272.29091 Z"
     id="path860" />
  <path
     style="fill:#ffffff;stroke-width:0.581818"
     d="m 187.7032,62.203173 c -4.67424,-3.676763 -4.16211,-10.505026 0.97059,-12.940648 2.50887,-1.190539 3.93338,-1.219739 6.53216,-0.1339 5.17453,2.162057 5.77742,9.388091 1.09085,13.074548 -2.11492,1.663596 -6.47868,1.663596 -8.5936,0 z"
     id="path862" />
  <path
     style="fill:#ffffff;stroke-width:0.581818"
     d="m 67.438036,278.95069 c -3.561137,-1.09701 -7.930614,-5.03461 -9.625329,-8.67398 l -1.364976,-2.93126 -0.0057,-50.9509 c -0.0062,-56.01426 -0.137673,-53.85176 3.544293,-58.31862 0.97463,-1.1824 2.996416,-2.86955 4.492857,-3.74923 L 67.2,152.72727 190.81563,152.57648 c 139.50417,-0.17017 127.04231,-0.59213 132.10768,4.47324 4.42149,4.42148 4.64033,5.6219 4.64033,25.45392 v 17.06 H 320 312.43636 v -16 -16 h -80.29091 -80.2909 v 16.29091 16.2909 h 59.92727 59.92727 V 208 215.85455 H 211.78182 151.85455 V 240 264.14545 h 55.85454 55.85455 V 272 v 7.85455 l -96.72728,-0.0405 c -81.641398,-0.0342 -97.143855,-0.16888 -99.398324,-0.86336 z M 136.14545,240 V 215.85455 H 103.85455 71.563636 V 240 264.14545 h 32.290914 32.2909 z m 0,-56.14545 v -16.29091 h -32.2909 -32.290914 v 16.29091 16.2909 h 32.290914 32.2909 z"
     id="path864" />
  <path
     style="fill:#ffffff;stroke-width:0.581818"
     d="m 344.43636,440.749 v -54.96008 l -8,-16.07261 -8,-16.07262 v -31.22184 c 0,-30.70827 0.0207,-31.27033 1.25828,-34.16903 l 1.25828,-2.94717 -15.60716,-7.43364 c -8.58393,-4.0885 -16.15915,-8.02121 -16.83381,-8.73935 -1.48112,-1.57658 -9.93013,-26.49996 -9.93013,-29.29247 0,-2.69728 1.42818,-5.17334 3.64621,-6.32149 3.50605,-1.81488 25.6911,-8.93688 27.83843,-8.93688 1.52973,0 6.50622,2.08071 17.57502,7.34825 l 15.44104,7.34824 15.4141,-6.16631 c 17.46919,-6.98844 20.68481,-7.77378 26.67296,-6.51425 4.73025,0.99495 2.04993,-0.38776 28.64921,14.77943 24.28784,13.84919 26.20097,15.27561 29.51808,22.00859 1.92794,3.91329 1.93704,3.97207 2.22677,14.38296 l 0.29091,10.45361 17.74988,8.47065 c 9.76244,4.65885 18.32811,8.88182 19.03485,9.38436 1.65935,1.17992 3.06168,3.89034 3.06623,5.9264 0.006,2.5135 -16.96778,35.99532 -19.19962,37.8733 -2.87759,2.42133 -5.40789,2.10877 -13.42919,-1.65887 -3.74703,-1.76 -6.97035,-3.2 -7.16293,-3.2 -0.19257,0 -0.35211,1.24364 -0.35453,2.76364 -0.0121,7.62032 -3.23116,18.44308 -7.68494,25.83758 -1.60776,2.66933 -3.68069,6.49166 -4.60652,8.49405 -3.46642,7.49726 -3.39524,6.19591 -3.40464,62.25019 l -0.009,51.34545 H 432 424.14545 v -49.70335 c 0,-30.89092 0.22763,-51.42596 0.6014,-54.25455 0.8886,-6.7247 3.75604,-15.15933 7.02478,-20.66353 6.73212,-11.33613 8.22589,-16.11064 8.31355,-26.57234 l 0.0603,-7.19376 -32,-15.24101 -32,-15.24102 -0.16979,4.95028 -0.16979,4.95027 10.79092,10.80215 10.79093,10.80215 -5.53355,5.51054 -5.53355,5.51055 -13.08758,-13.07789 -13.08759,-13.07788 -0.002,-14.84122 c -0.002,-13.69343 -0.09,-14.98526 -1.13791,-16.70387 -3.00375,-4.92631 -11.00699,-4.92631 -14.01074,0 -1.08574,1.78067 -1.13583,3.12332 -1.13791,30.50143 l -0.002,28.63877 7.85454,15.76198 7.85455,15.76198 v 56.69016 56.69016 H 352 344.43636 Z m 128.69006,-116.29812 4.45448,-8.93094 -79.07949,-37.65436 -79.07948,-37.65437 -6.69279,2.20276 c -4.74296,1.56102 -6.68146,2.46251 -6.65393,3.09439 0.0214,0.4904 1.00319,3.63114 2.18182,6.97942 l 2.14297,6.08777 16.17558,7.71065 16.17559,7.71065 3.60623,-0.92454 c 10.63732,-2.7271 21.6987,2.59367 26.94241,12.9599 l 1.68201,3.32516 45.96363,21.95197 c 25.28,12.07359 46.36028,21.97909 46.84507,22.01223 0.57859,0.0396 2.41195,-3.00834 5.3359,-8.87069 z m -32.69006,-48.07547 c 0,-5.59422 -1.16558,-8.25181 -4.56143,-10.40031 -1.49122,-0.94346 -11.72091,-6.84655 -22.73265,-13.11797 -15.26564,-8.6941 -20.49433,-11.40258 -22.01251,-11.40258 -2.11576,0 -19.00634,6.34132 -18.45082,6.9271 0.54511,0.57479 66.2469,31.94026 67.03014,31.99961 0.51762,0.0392 0.72727,-1.11558 0.72727,-4.00585 z"
     id="path866" />
  <path
     style="fill:#ffffff;stroke-width:0.581818"
     d="M 200.14545,327.85455 V 320 h 51.78182 51.78182 v 7.85455 7.85454 h -51.78182 -51.78182 z"
     id="path868" />
  <path
     style="fill:#ffffff;stroke-width:0.581818"
     d="M 152.43636,359.85455 V 352 h 27.63637 27.63636 v 7.85455 7.85454 h -27.63636 -27.63637 z"
     id="path870" />
  <path
     style="fill:#ffffff;stroke-width:0.581818"
     d="m 67.438036,374.96899 c -3.573958,-1.12545 -7.936135,-5.06476 -9.625329,-8.69228 -1.343733,-2.88564 -1.365064,-3.22619 -1.37066,-21.88216 -0.0063,-20.86708 0.177906,-22.23461 3.544293,-26.31862 0.97463,-1.1824 2.996416,-2.86955 4.492857,-3.74923 L 67.2,312.72727 l 19.766505,-0.1748 c 17.189165,-0.152 20.091835,-0.0506 22.261615,0.7781 l 2.49511,0.95289 8.57475,-7.12443 c 4.71611,-3.91843 9.00688,-7.49285 9.53503,-7.94315 0.8588,-0.73218 1.45835,-0.22634 5.67273,4.78603 2.59184,3.08261 4.71234,5.78324 4.71221,6.00142 -1.2e-4,0.21817 -4.55463,4.19303 -10.12114,8.83303 L 119.9759,327.27273 119.76977,345.6 c -0.1976,17.56848 -0.25918,18.42643 -1.48741,20.72231 -1.96888,3.68033 -3.86329,5.64532 -7.25241,7.52266 l -3.10268,1.71867 -18.909088,0.12323 c -15.137987,0.0987 -19.441789,-0.0445 -21.580146,-0.71788 z m 36.707414,-24.42354 c 0,-5.28 -0.15185,-9.6 -0.33745,-9.6 -0.18561,0 -2.65231,1.96396 -5.481557,4.36434 l -5.144093,4.36434 -4.700266,-5.65167 c -2.585146,-3.10843 -4.700266,-5.83542 -4.700266,-6.05999 0,-0.22458 2.421818,-2.42399 5.381818,-4.88759 2.96,-2.4636 5.469091,-4.71146 5.575758,-4.99526 0.108779,-0.28941 -4.936935,-0.51598 -11.490909,-0.51598 H 71.563636 v 16.29091 16.2909 h 16.290909 16.290905 z"
     id="path872" />
  <path
     style="fill:#ffffff;stroke-width:0.581818"
     d="M 224,359.85455 V 352 h 39.85455 39.85454 v 7.85455 7.85454 H 263.85455 224 Z"
     id="path874" />
  <path
     style="fill:#ffffff;stroke-width:0.581818"
     d="M 168.14545,327.85455 V 320 H 176 h 7.85455 v 7.85455 7.85454 H 176 168.14545 Z"
     id="path876" />
  <path
     style="fill:#ffffff;stroke-width:0.581818"
     d="m 67.422419,462.90584 c -5.040745,-1.8013 -8.676805,-5.39531 -10.311957,-10.19266 -0.938761,-2.75422 -0.853768,-39.18574 0.09744,-41.76572 1.27993,-3.47159 4.169367,-6.83327 7.409231,-8.62019 l 3.164687,-1.74545 18.839697,-0.17568 c 16.372923,-0.15268 19.247763,-0.0473 21.956293,0.8046 2.66892,0.83948 3.2639,0.86478 4.14212,0.17612 0.56404,-0.4423 4.87001,-4.00806 9.56883,-7.92392 l 8.5433,-7.11975 4.69306,5.64302 c 2.58118,3.10365 4.69306,5.82427 4.69306,6.04582 0,0.22154 -4.56493,4.21636 -10.14429,8.87737 l -10.1443,8.47457 -0.18298,18.19892 c -0.178,17.7048 -0.21984,18.27378 -1.54079,20.95601 -1.70157,3.45506 -5.73869,7.05706 -9.25083,8.25377 -3.58437,1.22132 -38.167853,1.31556 -41.532569,0.11317 z m 36.723031,-24.57708 c 0,-9.12163 -0.0579,-9.62667 -1.01818,-8.88687 -0.85824,0.66115 -3.206554,2.5912 -8.960284,7.36432 -0.853088,0.70769 -1.486347,0.17095 -5.672727,-4.80812 -2.591843,-3.08261 -4.712441,-5.79704 -4.712441,-6.03208 0,-0.23504 2.487273,-2.47383 5.527273,-4.9751 3.04,-2.50128 5.527273,-4.64748 5.527273,-4.76934 C 94.836364,416.09971 89.6,416 83.2,416 H 71.563636 v 16 16 h 16.290909 16.290905 z"
     id="path878" />
  <path
     style="fill:#ffffff;stroke-width:0.581818"
     d="m 168.14545,416 v -7.56364 H 176 183.85455 V 416 423.56364 H 176 168.14545 Z"
     id="path880" />
  <path
     style="fill:#ffffff;stroke-width:0.581818"
     d="m 200.14545,416 v -7.56364 H 256 311.85455 V 416 423.56364 H 256 200.14545 Z"
     id="path882" />
  <path
     style="fill:#ffffff;stroke-width:0.581818"
     d="m 152.43636,448 v -7.56364 h 27.63637 27.63636 V 448 v 7.56364 h -27.63636 -27.63637 z"
     id="path884" />
  <path
     style="fill:#ffffff;stroke-width:0.581818"
     d="m 224,448 v -7.56364 h 43.92727 43.92728 V 448 455.56364 H 267.92727 224 Z"
     id="path886" />
</svg>
